<svg width="200" height="200" viewBox="0 0 200 200" fill="none" xmlns="http://www.w3.org/2000/svg">
<g clip-path="url(#clip0_903_6410)">
<path d="M200 100C200 44.772 155.228 0 100 0C44.772 0 0 44.772 0 100C0 146.896 32.288 186.248 75.844 197.056V130.56H55.224V100H75.844V86.832C75.844 52.796 91.248 37.02 124.664 37.02C131 37.02 141.932 38.264 146.404 39.504V67.204C144.044 66.956 139.944 66.832 134.852 66.832C118.456 66.832 112.12 73.044 112.12 89.192V100H144.784L139.172 130.56H112.12V199.268C161.636 193.288 200.004 151.128 200.004 100H200Z" fill="#0866FF"/>
<path d="M139.168 130.56L144.78 100H112.116V89.192C112.116 73.044 118.452 66.832 134.848 66.832C139.94 66.832 144.04 66.956 146.4 67.204V39.504C141.928 38.26 130.996 37.02 124.66 37.02C91.2437 37.02 75.8397 52.796 75.8397 86.832V100H55.2197V130.56H75.8397V197.056C83.5757 198.976 91.6677 200 99.9957 200C104.096 200 108.14 199.748 112.112 199.268V130.56H139.164H139.168Z" fill="white"/>
</g>
<defs>
<clipPath id="clip0_903_6410">
<rect width="200" height="200" fill="white"/>
</clipPath>
</defs>
</svg>
