<svg width="200" height="200" viewBox="0 0 200 200" fill="none" xmlns="http://www.w3.org/2000/svg">
<g clip-path="url(#clip0_903_6408)">
<path d="M100 200C155.228 200 200 155.228 200 100C200 44.7715 155.228 0 100 0C44.7715 0 0 44.7715 0 100C0 155.228 44.7715 200 100 200Z" fill="url(#paint0_linear_903_6408)"/>
<path fill-rule="evenodd" clip-rule="evenodd" d="M45.2655 98.9443C74.4175 86.2433 93.8568 77.8699 103.583 73.8244C131.354 62.2734 137.125 60.2669 140.886 60.2007C141.713 60.1861 143.563 60.3911 144.761 61.3633C145.773 62.1842 146.051 63.2931 146.184 64.0714C146.318 64.8497 146.483 66.6227 146.352 68.0081C144.847 83.8204 138.335 122.193 135.022 139.903C133.62 147.397 130.86 149.909 128.188 150.155C122.381 150.69 117.971 146.317 112.346 142.631C103.545 136.861 98.573 133.27 90.0298 127.64C80.1567 121.134 86.557 117.558 92.1837 111.714C93.6562 110.184 119.243 86.9112 119.738 84.8C119.8 84.5359 119.857 83.5517 119.273 83.032C118.688 82.5123 117.825 82.69 117.202 82.8314C116.32 83.0317 102.259 92.325 75.0217 110.711C71.0308 113.452 67.4159 114.787 64.1771 114.717C60.6066 114.64 53.7384 112.698 48.6325 111.038C42.37 109.003 37.3927 107.926 37.8261 104.469C38.0519 102.668 40.5317 100.827 45.2655 98.9443Z" fill="white"/>
</g>
<defs>
<linearGradient id="paint0_linear_903_6408" x1="100" y1="0" x2="100" y2="198.517" gradientUnits="userSpaceOnUse">
<stop stop-color="#2AABEE"/>
<stop offset="1" stop-color="#229ED9"/>
</linearGradient>
<clipPath id="clip0_903_6408">
<rect width="200" height="200" fill="white"/>
</clipPath>
</defs>
</svg>
