<svg width="200" height="200" viewBox="0 0 200 200" fill="none" xmlns="http://www.w3.org/2000/svg">
<g clip-path="url(#clip0_903_6409)">
<path d="M0 96C0 50.745 0 28.1177 14.0589 14.0589C28.1177 0 50.745 0 96 0H104C149.255 0 171.882 0 185.941 14.0589C200 28.1177 200 50.745 200 96V104C200 149.255 200 171.882 185.941 185.941C171.882 200 149.255 200 104 200H96C50.745 200 28.1177 200 14.0589 185.941C0 171.882 0 149.255 0 104V96Z" fill="#0077FF"/>
<path d="M106.416 144.084C60.8329 144.084 34.8333 112.834 33.75 60.8337H56.5833C57.3333 99.0004 74.1663 115.167 87.4996 118.5V60.8337H109V93.7504C122.167 92.3337 135.999 77.3337 140.665 60.8337H162.166C158.583 81.1671 143.583 96.1671 132.916 102.334C143.583 107.334 160.667 120.417 167.167 144.084H143.499C138.416 128.25 125.75 116 109 114.334V144.084H106.416Z" fill="white"/>
</g>
<defs>
<clipPath id="clip0_903_6409">
<rect width="200" height="200" fill="white"/>
</clipPath>
</defs>
</svg>
