<svg width="60" height="60" viewBox="0 0 60 60" fill="none" xmlns="http://www.w3.org/2000/svg">
<g id="Interface / Star">
<path id="Vector" d="M5.8374 25.8419C5.05428 25.1177 5.47967 23.8085 6.53891 23.6829L21.5479 21.9027C21.9796 21.8515 22.3545 21.5804 22.5366 21.1856L28.8672 7.46115C29.314 6.49256 30.6909 6.49238 31.1377 7.46097L37.4683 21.1853C37.6503 21.5801 38.0229 21.8519 38.4546 21.9031L53.4644 23.6829C54.5236 23.8085 54.9478 25.1181 54.1647 25.8423L43.0694 36.1048C42.7502 36.3999 42.6081 36.8393 42.6929 37.2657L45.6375 52.0899C45.8454 53.1361 44.732 53.9467 43.8012 53.4257L30.6129 46.0415C30.2335 45.8292 29.7727 45.8302 29.3933 46.0425L16.2036 53.4238C15.2728 53.9448 14.1574 53.136 14.3652 52.0898L17.3104 37.2666C17.3951 36.8402 17.2533 36.3998 16.9342 36.1047L5.8374 25.8419Z" stroke="#EB6B06" stroke-width="3" stroke-linecap="round" stroke-linejoin="round"/>
</g>
</svg>
