<svg width="60" height="60" viewBox="0 0 60 60" fill="none" xmlns="http://www.w3.org/2000/svg">
<g id="Interface / Book_Open">
<path id="Vector" d="M30 24.4995V49.9995M30 24.4995C30 20.2991 30 18.1998 30.8175 16.5955C31.5365 15.1842 32.683 14.0365 34.0942 13.3175C35.6986 12.5 37.7991 12.5 41.9995 12.5H48.4995C49.8996 12.5 50.6002 12.5 51.135 12.7725C51.6054 13.0122 51.9869 13.3943 52.2266 13.8647C52.499 14.3995 52.5 15.1001 52.5 16.5002V38.5002C52.5 39.9004 52.499 40.5995 52.2266 41.1342C51.9869 41.6047 51.6062 41.9881 51.1358 42.2278C50.6015 42.5 49.9025 42.5 48.5051 42.5H41.4233C39.0753 42.5 37.8992 42.5 36.8335 42.8236C35.8901 43.1101 35.0142 43.5793 34.2525 44.2053C33.3921 44.9125 32.7401 45.8893 31.4376 47.843L30 49.9995M30 24.4995C30 20.2991 29.9996 18.1998 29.1821 16.5955C28.4631 15.1842 27.3157 14.0365 25.9044 13.3175C24.3001 12.5 22.1994 12.5 17.999 12.5H11.499C10.0989 12.5 9.39953 12.5 8.86475 12.7725C8.39434 13.0122 8.01217 13.3943 7.77248 13.8647C7.5 14.3995 7.5 15.1001 7.5 16.5002V38.5002C7.5 39.9004 7.5 40.5995 7.77248 41.1342C8.01217 41.6047 8.39434 41.9881 8.86475 42.2278C9.399 42.5 10.0975 42.5 11.4949 42.5H18.5768C20.9249 42.5 22.0986 42.5 23.1642 42.8236C24.1076 43.1101 24.9878 43.5793 25.7495 44.2053C26.6064 44.9096 27.2543 45.8815 28.5462 47.8193L30 49.9995" stroke="#EB6B06" stroke-width="3" stroke-linecap="round" stroke-linejoin="round"/>
</g>
</svg>
