<svg width="60" height="60" viewBox="0 0 60 60" fill="none" xmlns="http://www.w3.org/2000/svg">
<path d="M20 20H16.9434C13.6943 20 12.0711 20 10.9155 20.6629C9.90145 21.2445 9.12193 22.1634 8.71488 23.2593C8.25131 24.5073 8.51815 26.1083 9.05162 29.3092L9.05273 29.3152L11.3861 43.3152C11.7819 45.6901 11.9811 46.8781 12.5737 47.7692C13.096 48.5547 13.8293 49.1757 14.6899 49.5618C15.6663 49.9998 16.8697 50 19.2773 50H40.7233C43.131 50 44.3335 49.9998 45.3099 49.5618C46.1706 49.1757 46.9044 48.5546 47.4268 47.7692C48.0193 46.8781 48.2175 45.6901 48.6133 43.3152L50.9466 29.3152L50.9489 29.3054C51.482 26.1071 51.7487 24.5069 51.2853 23.2593C50.8782 22.1634 50.1006 21.2445 49.0865 20.6629C47.9309 20 46.305 20 43.056 20H40M20 20H40M20 20C20 14.4772 24.4772 10 30 10C35.5228 10 40 14.4772 40 20" stroke="#EB6B06" stroke-width="3" stroke-linecap="round" stroke-linejoin="round"/>
</svg>
